# xmcd
#
# Track frame offsets:
#	300
#	14588
#	36178
#	49069
#	68028
#	79930
#	113300
#	131747
#	150060
#	170419
#	183926
#	208608
#
# Disc length: 3032 seconds
#
# Revision: 0
# Processed by: cddbd v1.4PL0 Copyright (c) Steve Scherf et al.
# Submitted via: audiograbber 1.81.03
#
DISCID=930bd40c
DTITLE=Tom Townsley and The Backsliders - Moonlight Worker
DYEAR=1900
DGENRE=Blues
TTITLE0=Casino Katy
TTITLE1=Moonlight Worker
TTITLE2=T-Minus
TTITLE3=It's Too Hot
TTITLE4=Just Your Fool
TTITLE5=If You See Kay
TTITLE6=Nickel Strut
TTITLE7=The Worst Good Luck
TTITLE8=Check Up From The Neck Up
TTITLE9=Real Gone Lover
TTITLE10=Comin' Home, Baby
TTITLE11=Knob Creek Flood
EXTD=
EXTT0=
EXTT1=
EXTT2=
EXTT3=
EXTT4=
EXTT5=
EXTT6=
EXTT7=
EXTT8=
EXTT9=
EXTT10=
EXTT11=
PLAYORDER=
